<svg xmlns="http://www.w3.org/2000/svg" viewBox="0 0 822.17 822.17"><g id="Слой_2" data-name="Слой 2"><g id="Layer_1" data-name="Layer 1"><path class="cls-1" d="M743.62,169.4c-71.4,33.68-94,179.3-125.07,268.6-50,143.74-130,250.57-283.36,279.58-49.72,9.4-117.91.68-146.77,31.6C245.75,594.7,372.86,445.77,519.75,371.09c-100.49,36.15-169,66.94-263,165.4-58.19,61-101.25,154.15-115.19,185A409.51,409.51,0,0,0,411.09,822.17c227,0,411.08-184,411.08-411.08A409.2,409.2,0,0,0,743.62,169.4Z"/><path class="cls-2" d="M215.22,436.59C358,243.67,617.75,181.61,741.89,167,667,65.72,546.74,0,411.09,0,184.05,0,0,184.05,0,411.09a410,410,0,0,0,135.52,305C128.19,625.37,162.6,507.69,215.22,436.59Z"/></g></g></svg>
